<svg xmlns="http://www.w3.org/2000/svg" xmlns:xlink="http://www.w3.org/1999/xlink" width="500" zoomAndPan="magnify" viewBox="0 0 375 187.499995" height="250" preserveAspectRatio="xMidYMid meet" version="1.0"><defs><clipPath id="452e58811f"><path d="M 0.5 0 L 374.5 0 L 374.5 187 L 0.5 187 Z M 0.5 0 " clip-rule="nonzero"/></clipPath><clipPath id="db3735bab0"><path d="M 19.199219 29.296875 L 203 29.296875 L 203 150 L 19.199219 150 Z M 19.199219 29.296875 " clip-rule="nonzero"/></clipPath></defs><g clip-path="url(#452e58811f)"><path fill="#ffffff" d="M 0.5 0 L 374.5 0 L 374.5 194.480469 L 0.5 194.480469 Z M 0.5 0 " fill-opacity="1" fill-rule="nonzero"/><path fill="#ffffff" d="M 0.5 0 L 374.5 0 L 374.5 187 L 0.5 187 Z M 0.5 0 " fill-opacity="1" fill-rule="nonzero"/><path fill="#ffffff" d="M 0.5 0 L 374.5 0 L 374.5 187 L 0.5 187 Z M 0.5 0 " fill-opacity="1" fill-rule="nonzero"/></g><g clip-path="url(#db3735bab0)"><path fill="#00dc82" d="M 122.167969 149.078125 L 190.402344 149.078125 C 192.566406 149.078125 194.699219 148.523438 196.574219 147.472656 C 198.449219 146.421875 200.007812 144.910156 201.09375 143.089844 C 202.175781 141.269531 202.746094 139.203125 202.746094 137.101562 C 202.742188 134.996094 202.171875 132.933594 201.085938 131.113281 L 155.265625 54.109375 C 154.179688 52.289062 152.625 50.777344 150.746094 49.726562 C 148.871094 48.675781 146.742188 48.121094 144.574219 48.121094 C 142.410156 48.121094 140.28125 48.675781 138.402344 49.726562 C 136.527344 50.777344 134.96875 52.289062 133.886719 54.109375 L 122.167969 73.8125 L 99.261719 35.285156 C 98.179688 33.464844 96.617188 31.953125 94.742188 30.902344 C 92.863281 29.851562 90.734375 29.296875 88.570312 29.296875 C 86.402344 29.296875 84.273438 29.851562 82.394531 30.902344 C 80.519531 31.953125 78.960938 33.464844 77.875 35.285156 L 20.855469 131.113281 C 19.773438 132.933594 19.199219 134.996094 19.199219 137.101562 C 19.199219 139.203125 19.769531 141.269531 20.851562 143.089844 C 21.933594 144.910156 23.492188 146.421875 25.371094 147.472656 C 27.246094 148.523438 29.375 149.078125 31.542969 149.078125 L 74.371094 149.078125 C 91.34375 149.078125 103.855469 141.847656 112.46875 127.738281 L 133.375 92.609375 L 144.570312 73.8125 L 178.179688 130.28125 L 133.375 130.28125 Z M 73.675781 130.261719 L 43.785156 130.253906 L 88.589844 54.96875 L 110.945312 92.609375 L 95.976562 117.769531 C 90.257812 126.925781 83.761719 130.261719 73.675781 130.261719 Z M 73.675781 130.261719 " fill-opacity="1" fill-rule="nonzero"/></g><path fill="#ffffff" d="M 309.53125 72.675781 L 313.363281 76.640625 L 274.660156 114.046875 L 270.828125 110.078125 Z M 309.53125 72.675781 " fill-opacity="1" fill-rule="nonzero"/><path stroke-linecap="round" transform="matrix(3.216423, 0, 0, 3.216423, 227.39608, 29.298112)" fill-opacity="1" fill="#ffffff" fill-rule="nonzero" stroke-linejoin="round" d="M 26.000115 14.00003 L 36.8004 14.00003 C 37.462286 14.00003 38.000296 14.536826 38.000296 15.199927 L 38.000296 36.800497 C 38.000296 37.462383 37.462286 38.000393 36.8004 38.000393 L 15.19983 38.000393 C 14.536729 38.000393 13.999933 37.462383 13.999933 36.800497 L 13.999933 26.000212 " stroke="#16161a" stroke-width="2" stroke-opacity="1" stroke-miterlimit="4"/><path stroke-linecap="round" transform="matrix(3.216423, 0, 0, 3.216423, 227.39608, 29.298112)" fill-opacity="1" fill="#ffffff" fill-rule="nonzero" stroke-linejoin="round" d="M 26.000115 14.00003 L 26.000115 3.199745 C 26.000115 2.537859 25.463319 1.999848 24.800218 1.999848 L 3.199648 1.999848 C 2.537762 1.999848 1.999751 2.537859 1.999751 3.199745 L 1.999751 24.800315 C 1.999751 25.462201 2.537762 26.000212 3.199648 26.000212 L 13.999933 26.000212 " stroke="#16161a" stroke-width="2" stroke-opacity="1" stroke-miterlimit="4"/><path fill="#16161a" d="M 259.558594 93.625 C 257.785156 93.625 256.34375 92.1875 256.34375 90.410156 L 256.34375 55.03125 C 256.34375 53.253906 257.785156 51.8125 259.558594 51.8125 L 271.632812 51.8125 C 273.96875 51.8125 276.152344 52.046875 278.183594 52.519531 C 280.257812 52.945312 282.042969 53.695312 283.542969 54.761719 C 285.089844 55.789062 286.300781 57.179688 287.183594 58.929688 C 288.066406 60.640625 288.507812 62.757812 288.507812 65.28125 C 288.507812 67.71875 288.046875 69.835938 287.117188 71.628906 C 286.234375 73.425781 285.023438 74.898438 283.476562 76.054688 C 281.933594 77.207031 280.148438 78.0625 278.117188 78.621094 C 276.089844 79.175781 273.925781 79.453125 271.632812 79.453125 L 269.289062 79.453125 C 267.511719 79.453125 266.074219 80.894531 266.074219 82.671875 L 266.074219 90.410156 C 266.074219 92.1875 264.632812 93.625 262.855469 93.625 Z M 266.074219 68.734375 C 266.074219 70.511719 267.511719 71.949219 269.289062 71.949219 L 271.035156 71.949219 C 276.332031 71.949219 278.976562 69.726562 278.976562 65.28125 C 278.976562 63.101562 278.292969 61.5625 276.925781 60.664062 C 275.601562 59.765625 273.640625 59.316406 271.035156 59.316406 L 269.289062 59.316406 C 267.511719 59.316406 266.074219 60.757812 266.074219 62.53125 Z M 266.074219 68.734375 " fill-opacity="1" fill-rule="nonzero"/><path fill="#16161a" d="M 298.15625 135.441406 C 296.382812 135.441406 294.941406 134 294.941406 132.222656 L 294.941406 96.84375 C 294.941406 95.066406 296.382812 93.625 298.15625 93.625 L 309.375 93.625 C 311.617188 93.625 313.679688 93.796875 315.570312 94.140625 C 317.503906 94.4375 319.175781 94.996094 320.578125 95.808594 C 321.984375 96.621094 323.085938 97.6875 323.875 99.011719 C 324.710938 100.339844 325.128906 102.007812 325.128906 104.015625 C 325.128906 104.957031 324.972656 105.898438 324.667969 106.835938 C 324.402344 107.777344 323.964844 108.65625 323.347656 109.46875 C 322.734375 110.277344 321.964844 111.007812 321.042969 111.648438 C 320.148438 112.269531 319.089844 112.730469 317.867188 113.027344 C 317.796875 113.046875 317.746094 113.109375 317.746094 113.183594 C 317.746094 113.257812 317.800781 113.324219 317.875 113.339844 C 320.886719 113.902344 323.171875 114.960938 324.734375 116.519531 C 326.3125 118.101562 327.105469 120.304688 327.105469 123.128906 C 327.105469 125.265625 326.6875 127.101562 325.851562 128.640625 C 325.019531 130.179688 323.855469 131.464844 322.359375 132.488281 C 320.867188 133.472656 319.109375 134.222656 317.085938 134.734375 C 315.109375 135.203125 312.957031 135.441406 310.628906 135.441406 Z M 304.628906 107.210938 C 304.628906 108.988281 306.070312 110.429688 307.847656 110.429688 L 308.914062 110.429688 C 311.285156 110.429688 313 109.980469 314.054688 109.082031 C 315.109375 108.183594 315.636719 106.921875 315.636719 105.296875 C 315.636719 103.757812 315.085938 102.667969 313.988281 102.027344 C 312.933594 101.34375 311.265625 101 308.980469 101 L 307.847656 101 C 306.070312 101 304.628906 102.441406 304.628906 104.21875 Z M 304.628906 124.847656 C 304.628906 126.625 306.070312 128.066406 307.847656 128.066406 L 309.835938 128.066406 C 315.023438 128.066406 317.613281 126.183594 317.613281 122.421875 C 317.613281 120.582031 316.976562 119.257812 315.703125 118.445312 C 314.472656 117.632812 312.515625 117.226562 309.835938 117.226562 L 307.847656 117.226562 C 306.070312 117.226562 304.628906 118.667969 304.628906 120.441406 Z M 304.628906 124.847656 " fill-opacity="1" fill-rule="nonzero"/></svg>